<svg id="svg" xmlns="http://www.w3.org/2000/svg" xmlns:xlink="http://www.w3.org/1999/xlink" width="400" height="414.1078838174274" viewBox="0, 0, 400,414.1078838174274"><g id="svgg">


<path id="path2" d="M175.200 4.464 C 164.735 5.920,156.217 7.511,150.000 9.172 C 149.230 9.378,148.150 9.666,147.600 9.813 C 144.102 10.746,137.344 12.838,135.400 13.590 C 134.960 13.760,132.260 14.758,129.400 15.807 C 123.295 18.046,122.632 18.333,114.064 22.465 C 103.760 27.434,95.002 32.684,85.122 39.815 C 73.225 48.402,60.716 60.038,51.597 71.000 C 49.950 72.980,48.509 74.690,48.394 74.800 C 48.279 74.910,46.854 76.800,45.227 79.000 C 43.599 81.200,41.795 83.630,41.217 84.400 C 36.812 90.269,29.755 102.323,25.139 111.860 C 23.633 114.972,22.400 117.623,22.400 117.750 C 22.400 117.876,21.860 119.159,21.200 120.600 C 20.540 122.041,20.000 123.398,20.000 123.615 C 20.000 123.833,19.818 124.323,19.595 124.705 C 19.135 125.496,16.693 132.207,15.559 135.800 C 15.142 137.120,14.626 138.740,14.412 139.400 C 13.923 140.909,12.059 148.007,11.524 150.400 C 11.302 151.390,10.957 152.920,10.756 153.800 C 10.555 154.680,10.212 156.390,9.993 157.600 C 9.775 158.810,9.424 160.700,9.213 161.800 C 5.808 179.557,5.643 201.238,8.798 216.200 C 8.983 217.080,9.347 218.880,9.606 220.200 C 9.866 221.520,10.346 223.680,10.675 225.000 C 11.003 226.320,11.424 228.030,11.609 228.800 C 12.336 231.814,14.352 238.429,15.205 240.600 C 15.378 241.040,15.703 241.940,15.928 242.600 C 16.807 245.184,19.755 252.300,21.434 255.894 C 22.405 257.973,23.200 259.719,23.200 259.773 C 23.200 260.276,30.825 273.260,33.316 277.000 C 49.675 301.555,69.202 316.765,92.000 322.712 C 94.828 323.450,96.188 323.726,102.328 324.806 C 106.612 325.560,106.957 324.464,104.242 318.720 C 100.177 310.118,97.541 303.560,95.140 296.070 C 94.246 293.282,93.353 290.687,93.157 290.305 C 92.961 289.923,92.800 289.257,92.800 288.824 C 92.800 288.392,92.639 287.624,92.442 287.119 C 91.602 284.966,89.499 275.843,88.448 269.800 C 87.176 262.478,86.812 259.508,86.052 250.244 C 85.546 244.070,85.266 242.214,84.800 241.961 C 84.470 241.781,82.850 241.005,81.200 240.235 C 65.157 232.752,53.257 218.300,49.222 201.400 C 48.959 200.300,48.532 198.590,48.274 197.600 C 47.650 195.215,47.656 179.628,48.281 177.200 C 48.535 176.210,48.959 174.500,49.222 173.400 C 50.261 169.046,52.544 163.172,54.474 159.882 C 55.094 158.828,55.600 157.873,55.600 157.760 C 55.600 157.330,59.004 152.494,60.921 150.200 C 65.166 145.119,72.521 138.872,76.780 136.727 C 77.781 136.223,78.690 135.704,78.800 135.574 C 79.133 135.180,85.686 132.467,88.429 131.588 C 91.887 130.479,98.615 129.261,102.908 128.967 C 107.190 128.674,107.408 128.479,107.731 124.667 C 109.838 99.739,123.836 74.098,144.200 57.864 C 145.520 56.812,146.944 55.669,147.365 55.324 C 155.406 48.733,171.733 41.321,184.800 38.330 C 186.010 38.053,187.090 37.730,187.200 37.612 C 187.310 37.495,187.940 37.129,188.600 36.799 C 195.380 33.413,198.862 22.611,195.616 15.037 C 192.068 6.760,185.001 3.100,175.200 4.464 M210.000 47.020 C 205.087 47.537,201.564 48.052,198.000 48.775 C 197.010 48.975,195.030 49.350,193.600 49.606 C 192.170 49.863,190.550 50.215,190.000 50.387 C 189.450 50.560,188.010 50.920,186.800 51.188 C 179.176 52.875,170.090 56.642,161.893 61.514 C 154.844 65.704,144.932 74.502,139.271 81.594 C 135.749 86.006,136.236 86.481,145.000 87.172 C 155.274 87.982,168.176 90.213,177.200 92.739 C 177.970 92.954,179.673 93.424,180.985 93.782 C 185.743 95.083,196.795 98.907,200.509 100.538 C 201.219 100.850,202.430 101.375,203.200 101.704 C 208.021 103.768,210.250 104.807,213.890 106.687 C 218.862 109.256,217.950 109.302,222.445 106.255 C 251.933 86.268,291.020 95.792,307.582 127.000 C 312.085 135.485,314.751 147.287,314.286 156.672 C 313.819 166.068,311.926 173.083,307.471 181.921 L 306.200 184.443 307.461 185.521 C 308.154 186.115,309.774 187.356,311.061 188.281 C 315.296 191.324,322.613 198.132,326.022 202.200 C 329.066 205.833,332.738 210.958,335.487 215.411 C 337.722 219.032,340.587 224.695,342.363 229.000 C 342.544 229.440,342.879 230.250,343.107 230.800 C 345.371 236.262,346.919 241.889,348.938 252.000 C 351.365 264.152,350.523 279.483,346.687 293.000 C 343.191 305.316,346.589 313.157,357.200 317.259 C 359.055 317.976,366.143 317.976,368.000 317.260 C 370.641 316.240,371.403 315.834,373.299 314.437 C 374.908 313.251,378.400 309.003,378.400 308.232 C 378.400 308.100,378.760 307.183,379.200 306.196 C 379.640 305.208,380.360 303.592,380.800 302.604 C 381.240 301.617,381.600 300.573,381.600 300.284 C 381.600 299.996,381.759 299.589,381.953 299.380 C 382.301 299.005,384.135 294.085,385.672 289.400 C 386.421 287.117,386.639 286.390,387.623 282.900 C 387.855 282.075,388.225 280.770,388.445 280.000 C 389.565 276.081,390.190 273.538,390.806 270.400 C 391.000 269.410,391.358 267.610,391.601 266.400 C 392.446 262.195,393.297 256.416,394.075 249.600 C 394.766 243.545,394.784 217.574,394.102 211.000 C 393.205 202.361,391.706 193.361,390.004 186.400 C 389.761 185.410,389.410 183.970,389.221 183.200 C 387.492 176.117,384.225 166.095,381.204 158.600 C 380.853 157.730,380.083 155.906,379.009 153.400 C 377.697 150.340,372.011 138.982,370.399 136.200 C 369.506 134.660,368.670 133.085,368.541 132.700 C 368.412 132.315,368.148 132.000,367.953 132.000 C 367.759 132.000,367.600 131.819,367.600 131.598 C 367.600 131.067,361.314 121.417,358.482 117.600 C 356.265 114.611,350.807 107.580,350.408 107.200 C 350.293 107.090,348.373 104.930,346.142 102.400 C 335.947 90.839,321.762 78.665,307.509 69.243 C 305.809 68.119,304.312 67.200,304.181 67.200 C 304.051 67.200,303.136 66.644,302.149 65.965 C 295.324 61.269,277.470 54.239,264.200 51.023 C 255.456 48.903,251.101 48.135,240.379 46.820 C 235.704 46.246,216.129 46.375,210.000 47.020 M250.400 109.444 C 244.923 109.936,233.184 114.371,230.200 117.075 C 229.759 117.474,228.679 118.326,227.800 118.968 C 225.176 120.883,219.981 126.405,218.173 129.199 C 204.005 151.101,210.252 179.348,232.197 192.610 C 248.321 202.354,268.699 201.308,283.419 189.982 C 286.685 187.468,293.600 180.013,293.600 179.004 C 293.600 178.900,294.193 177.867,294.917 176.708 C 299.218 169.825,301.681 158.767,300.773 150.424 C 297.934 124.339,276.717 107.079,250.400 109.444 M99.800 142.774 C 86.969 144.815,76.401 151.314,69.119 161.643 C 66.738 165.020,63.865 170.686,63.159 173.394 C 62.986 174.057,62.658 175.320,62.429 176.200 C 55.842 201.526,71.695 226.353,97.926 231.793 C 108.260 233.936,123.410 230.805,131.170 224.922 C 131.516 224.660,132.916 223.616,134.280 222.604 C 139.458 218.759,145.212 211.131,147.559 205.000 C 148.065 203.680,148.620 202.240,148.793 201.800 C 149.183 200.813,149.806 198.499,150.464 195.600 C 151.208 192.324,151.051 181.682,150.207 178.200 C 149.834 176.660,149.434 174.903,149.318 174.295 C 149.203 173.687,148.949 173.092,148.754 172.971 C 148.559 172.851,148.400 172.476,148.400 172.137 C 148.400 171.011,145.119 164.645,142.866 161.400 C 136.304 151.950,128.306 146.680,115.246 143.203 C 113.097 142.630,102.544 142.337,99.800 142.774 M327.311 232.261 C 327.042 232.370,325.523 234.381,323.936 236.730 C 314.622 250.514,301.079 265.230,287.600 276.216 C 281.794 280.948,279.050 282.955,271.930 287.678 C 267.448 290.650,266.853 291.436,267.599 293.398 C 268.126 294.784,268.115 306.394,267.584 309.427 C 266.838 313.690,265.430 319.018,264.421 321.400 C 262.529 325.862,262.165 326.632,260.825 329.000 C 248.036 351.604,224.338 362.419,198.000 357.672 C 190.558 356.331,177.817 350.438,172.959 346.091 C 172.535 345.711,171.154 344.530,169.891 343.467 C 167.260 341.252,161.501 334.227,159.955 331.347 C 158.638 328.893,157.844 328.765,154.179 330.411 C 146.688 333.777,139.805 335.796,128.400 337.973 C 119.573 339.658,106.296 339.335,95.600 337.174 C 89.481 335.938,86.819 335.173,79.000 332.404 C 75.367 331.118,65.796 326.323,62.288 324.032 C 60.576 322.915,59.092 322.000,58.990 322.000 C 57.968 322.000,47.106 312.761,42.000 307.549 C 28.003 293.260,5.072 309.305,13.630 327.400 C 16.274 332.991,34.890 354.233,41.673 359.400 C 42.251 359.840,43.416 360.831,44.262 361.602 C 46.327 363.485,51.645 367.809,54.600 370.010 C 55.920 370.994,57.090 371.903,57.200 372.031 C 57.664 372.571,72.624 382.400,72.982 382.400 C 73.067 382.400,74.672 383.287,76.548 384.370 C 79.784 386.239,92.082 392.400,92.576 392.400 C 92.704 392.400,93.617 392.760,94.604 393.200 C 95.592 393.640,97.208 394.360,98.196 394.800 C 99.183 395.240,100.233 395.600,100.529 395.600 C 100.825 395.600,101.186 395.719,101.332 395.865 C 102.108 396.641,119.528 402.170,125.000 403.378 C 125.660 403.524,126.920 403.805,127.800 404.004 C 129.393 404.364,131.703 404.832,135.700 405.607 C 148.582 408.104,167.910 409.319,180.762 408.440 C 191.937 407.677,202.598 406.223,210.400 404.400 C 211.170 404.220,212.790 403.860,214.000 403.599 C 215.210 403.339,216.740 402.973,217.400 402.786 C 218.060 402.599,220.040 402.060,221.800 401.587 C 226.229 400.398,234.647 397.596,238.700 395.963 C 239.195 395.763,240.005 395.444,240.500 395.254 C 240.995 395.063,241.895 394.703,242.500 394.454 C 243.105 394.204,244.005 393.839,244.500 393.642 C 247.387 392.493,256.711 387.996,260.600 385.876 C 268.131 381.771,270.333 380.284,280.625 372.346 C 282.097 371.211,287.269 366.641,290.749 363.401 C 293.792 360.569,301.936 351.636,304.800 347.992 C 317.490 331.841,325.467 317.073,331.589 298.400 C 334.153 290.582,334.925 287.700,335.611 283.400 C 335.857 281.860,336.225 279.625,336.429 278.433 C 337.052 274.792,336.881 260.635,336.160 256.165 C 335.127 249.767,334.812 248.224,333.677 244.000 C 333.352 242.791,331.925 238.699,330.211 234.059 C 329.548 232.266,328.659 231.715,327.311 232.261 M203.600 255.573 C 186.243 258.702,174.648 267.756,167.665 283.633 C 164.936 289.838,163.541 301.325,164.811 307.123 C 165.038 308.155,165.414 309.900,165.648 311.000 C 166.178 313.491,167.575 317.673,168.047 318.180 C 168.241 318.389,168.400 318.778,168.400 319.044 C 168.400 319.310,169.147 320.849,170.059 322.464 C 189.029 356.032,239.212 351.904,252.142 315.712 C 260.891 291.225,246.254 262.909,221.700 256.822 C 220.765 256.590,219.288 256.215,218.417 255.989 C 216.343 255.451,205.905 255.158,203.600 255.573 " stroke="none" fill="#ffffff" fill-rule="evenodd"></path></g></svg>
